<?xml version="1.0" encoding="iso-8859-1"?>
<!-- Generator: Adobe Illustrator 16.0.0, SVG Export Plug-In . SVG Version: 6.00 Build 0)  -->
<!DOCTYPE svg PUBLIC "-//W3C//DTD SVG 1.1//EN" "http://www.w3.org/Graphics/SVG/1.1/DTD/svg11.dtd">
<svg version="1.1" id="Capa_1" xmlns="http://www.w3.org/2000/svg" xmlns:xlink="http://www.w3.org/1999/xlink" x="0px" y="0px"
	 width="106.048px" height="106.048px" viewBox="0 0 106.048 106.048" style="enable-background:new 0 0 106.048 106.048;"
	 xml:space="preserve">
<g>
	<path style="fill:#010002;" d="M41.958,68.713c-0.126,0.451-0.282,0.855-0.44,1.243c-2.706-3.646-6.576-7.627-12.047-10.863
		C35.229,61.723,39.216,65.296,41.958,68.713z M106.048,21.209v63.629c0,11.666-9.543,21.21-21.21,21.21H21.209
		C9.543,106.048,0,96.504,0,84.838V21.209C0,9.543,9.543,0,21.209,0h63.628C96.505,0,106.048,9.543,106.048,21.209z M84.657,13.256
		C75.725,27.874,71.665,27.058,61.92,31.12c-9.474,3.943-20.334,20.881-7.685,30.354c5.587-6.245,6.478-6.877,9.823-9.448
		c-2.729-5.227,1.631-15.319,1.631-15.319c-1.605,8.023,0.052,13.453,0.176,13.782c1.585-1.209,5.872-3.896,8.602-7.009
		c-1.601-5.256,1.869-10.973,1.869-10.973c0.145,0.111-1.149,3.581-0.13,8.671c4.977-7.174,6.934-13.712,6.934-13.712
		s0.238,7.164-5.063,14.952c5.115-0.249,7.829-2.322,7.974-2.201c0,0-4.422,4.598-9.781,4.432c-1.932,2.677-8.332,7.307-8.704,7.604
		c1.76,0.466,6.711,1.432,13.193-0.27c0,0-9.631,4.177-15.017,1.976c-5.214,4.293-6.587,6.079-9.59,9.357
		c-0.031-0.042-1.978-1.781-1.947-1.823c-4.908,5.406-6.822,10.024-7.288,15.907c-0.743-2.024-2.227-5.261-4.963-8.689
		c0.031-0.104,0.072-0.181,0.106-0.3c5.207-18.745-23.426-16.138-23.426-16.138s3.954,6.087,6.16,12.726
		c2.553,7.694,12.976,14.089,16.72,4.955c2.91,3.915,4.034,9.259,4.697,11.009c0,4.889,0.536,7.332,0.966,11.407
		c0,0,2.63,1.554,3.361-1.347c-1.483-2.454-2.941-19.35,5.61-27.718c3.894,3.205,15.819,11.04,27.304-2.755
		C92.833,49.316,94.438,27.741,84.657,13.256z"/>
</g>
<g>
</g>
<g>
</g>
<g>
</g>
<g>
</g>
<g>
</g>
<g>
</g>
<g>
</g>
<g>
</g>
<g>
</g>
<g>
</g>
<g>
</g>
<g>
</g>
<g>
</g>
<g>
</g>
<g>
</g>
</svg>
